<svg width="37" height="37" viewBox="0 0 37 37" fill="none" xmlns="http://www.w3.org/2000/svg">
<path d="M2.56521 8.05213L2.56523 8.05212L16.4402 0.761085C17.074 0.428139 17.7814 0.253876 18.5 0.253876C19.2186 0.253876 19.926 0.428135 20.5598 0.761073C20.5598 0.761077 20.5598 0.761081 20.5598 0.761085L34.4348 8.05212L34.5428 7.84645L34.4348 8.05213C35.1348 8.41991 35.7198 8.96799 36.1274 9.63735C36.535 10.3067 36.7501 11.0723 36.75 11.8523V12.4234L21.4822 21.2398L18.6201 19.6714L18.5 19.6056L18.3799 19.6714L15.5178 21.2398L0.25 12.4234V11.8523V11.8523C0.249921 11.0723 0.465022 10.3067 0.872619 9.63735C1.28024 8.96799 1.86516 8.41991 2.56521 8.05213ZM36.75 15.6415V29.5943L24.345 22.8058L36.75 15.6415ZM18.5 22.7822L36.5698 32.6739C36.3114 33.5299 35.7883 34.2877 35.0704 34.8402C34.3011 35.4322 33.3523 35.7541 32.3751 35.7539H4.625C3.64772 35.7541 2.69893 35.4322 1.92955 34.8402C1.21169 34.2877 0.688637 33.5299 0.430249 32.6739L18.5 22.7822ZM0.25 15.6415L12.6551 22.8058L0.25 29.5965V15.6415Z" stroke="white" stroke-width="0.5"/>
</svg>
