<svg width="32" height="21" viewBox="0 0 32 21" fill="none" xmlns="http://www.w3.org/2000/svg">
<path d="M15.232 0.456V3.62H10.024V20H6.104V3.62H0.896V0.456H15.232ZM24.8402 20.196C23.4775 20.196 22.2455 19.9627 21.1442 19.496C20.0615 19.0293 19.2028 18.3573 18.5682 17.48C17.9335 16.6027 17.6068 15.5667 17.5882 14.372H21.7882C21.8442 15.1747 22.1242 15.8093 22.6282 16.276C23.1508 16.7427 23.8602 16.976 24.7562 16.976C25.6708 16.976 26.3895 16.7613 26.9122 16.332C27.4348 15.884 27.6962 15.3053 27.6962 14.596C27.6962 14.0173 27.5188 13.5413 27.1642 13.168C26.8095 12.7947 26.3615 12.5053 25.8202 12.3C25.2975 12.076 24.5695 11.8333 23.6362 11.572C22.3668 11.1987 21.3308 10.8347 20.5282 10.48C19.7442 10.1067 19.0628 9.556 18.4842 8.828C17.9242 8.08133 17.6442 7.092 17.6442 5.86C17.6442 4.70267 17.9335 3.69467 18.5122 2.836C19.0908 1.97733 19.9028 1.324 20.9482 0.875999C21.9935 0.409333 23.1882 0.176 24.5322 0.176C26.5482 0.176 28.1815 0.670666 29.4322 1.66C30.7015 2.63067 31.4015 3.99333 31.5322 5.748H27.2202C27.1828 5.076 26.8935 4.52533 26.3522 4.096C25.8295 3.648 25.1295 3.424 24.2522 3.424C23.4868 3.424 22.8708 3.62 22.4042 4.012C21.9562 4.404 21.7322 4.97333 21.7322 5.72C21.7322 6.24267 21.9002 6.68133 22.2362 7.036C22.5908 7.372 23.0202 7.652 23.5242 7.876C24.0468 8.08133 24.7748 8.324 25.7082 8.604C26.9775 8.97733 28.0135 9.35067 28.8162 9.724C29.6188 10.0973 30.3095 10.6573 30.8882 11.404C31.4668 12.1507 31.7562 13.1307 31.7562 14.344C31.7562 15.3893 31.4855 16.36 30.9442 17.256C30.4028 18.152 29.6095 18.8707 28.5642 19.412C27.5188 19.9347 26.2775 20.196 24.8402 20.196Z" fill="white"/>
</svg>
