<svg width="37" height="37" viewBox="0 0 37 37" fill="none" xmlns="http://www.w3.org/2000/svg">
<path d="M13.6484 32.5647C11.4556 32.9227 10.0146 32.6441 9.06147 32.1109C8.06561 31.5538 7.64139 30.7407 7.4434 30.1869C7.34615 29.9405 7.07879 29.4165 6.73744 28.8987C6.56683 28.6399 6.3811 28.3878 6.193 28.1759C6.00338 27.9622 5.82203 27.8017 5.66134 27.7117C5.48592 27.6177 5.29295 27.4904 5.12576 27.3499C4.96355 27.2136 4.80111 27.0447 4.71845 26.8637C4.67584 26.7704 4.64593 26.6553 4.66762 26.5321C4.6905 26.4021 4.76488 26.2966 4.8693 26.2201C5.05803 26.0818 5.36076 26.0255 5.75417 26.0197C5.75425 26.0197 5.75432 26.0197 5.7544 26.0197L5.75813 26.2696L13.6484 32.5647ZM13.6484 32.5647C13.6496 33.2323 13.6547 33.8709 13.6597 34.4039C13.6615 34.5915 13.6632 34.7658 13.6648 34.9235C13.6685 35.2812 13.6713 35.5539 13.6713 35.7049C13.6713 35.892 13.604 36.0767 13.4667 36.1981C13.3371 36.3126 13.1072 36.4038 12.7102 36.3383C5.46442 33.9204 0.25 27.1205 0.25 19.0721C0.25 9.01417 8.41625 0.866791 18.5 0.866791C28.5838 0.866791 36.75 9.01417 36.75 19.072C36.7494 22.8865 35.5495 26.6048 33.3192 29.7034C31.092 32.7975 27.9494 35.1181 24.3327 36.3393C23.9372 36.4148 23.7097 36.3235 23.5811 36.2081C23.443 36.0841 23.375 35.8932 23.375 35.7049C23.375 35.4976 23.3776 35.1389 23.381 34.6602C23.3827 34.4222 23.3846 34.1545 23.3866 33.861C23.3923 32.9783 23.3981 31.8647 23.3981 30.6297C23.3981 29.1514 22.9883 28.0854 22.4282 27.4022C24.345 27.1434 26.3033 26.6061 27.8237 25.3339C29.4893 23.9402 30.59 21.6992 30.59 18.1032C30.59 16.0678 29.8897 14.4077 28.7313 13.0897C28.9703 12.4221 29.4567 10.5685 28.4908 8.15963L28.4474 8.05139L28.3366 8.01509L28.2588 8.25267C28.3366 8.01509 28.3363 8.01501 28.3361 8.01492L28.3355 8.01475L28.3344 8.01437L28.3316 8.0135L28.3242 8.01129C28.3186 8.00964 28.3114 8.00764 28.3026 8.00539C28.285 8.00089 28.2612 7.9954 28.2311 7.98978C28.1708 7.97854 28.0854 7.96678 27.9739 7.96117C27.7509 7.94995 27.4253 7.96344 26.9908 8.05407C26.1377 8.23198 24.8669 8.70664 23.127 9.87269C21.6567 9.47161 20.1009 9.27147 18.5463 9.27147C16.9914 9.27147 15.4354 9.47167 13.9649 9.87287C12.2251 8.7179 10.9548 8.24359 10.1026 8.06289C9.66847 7.97085 9.34334 7.95511 9.1208 7.96431C9.0096 7.96891 8.92434 7.97972 8.86423 7.99022C8.83418 7.99547 8.81046 8.00063 8.79297 8.00488C8.78423 8.007 8.77704 8.0089 8.77141 8.01047L8.76412 8.01255L8.76134 8.01338L8.76017 8.01374L8.75964 8.0139C8.75939 8.01398 8.75914 8.01406 8.83375 8.25267L8.75914 8.01406L8.64588 8.04947L8.60171 8.15963C7.6358 10.5686 8.12222 12.4222 8.36118 13.0897C7.20255 14.4093 6.5025 16.0906 6.5025 18.1032C6.5025 21.6875 7.5973 23.9282 9.25668 25.3248C10.7723 26.6003 12.7261 27.1428 14.6433 27.4023M13.6484 32.5647L14.6433 27.4023M14.6433 27.4023C14.2392 27.8975 13.9086 28.5968 13.7634 29.5107L14.6433 27.4023Z" stroke="white" stroke-width="0.5"/>
</svg>
