<svg width="37" height="37" viewBox="0 0 37 37" fill="none" xmlns="http://www.w3.org/2000/svg">
<path d="M11.4307 31.0065H11.6807V30.7565V14.5002V14.2502H11.4307H5.87838H5.62838V14.5002V30.7565V31.0065H5.87838H11.4307ZM12.0461 9.47149H12.0461L12.046 9.46606C12.0273 8.60723 11.7023 7.83963 11.1156 7.28724C10.5288 6.73492 9.69737 6.4135 8.69269 6.4135C7.68857 6.4135 6.83984 6.73506 6.2395 7.28591C5.63822 7.83762 5.3 8.60718 5.3 9.47149C5.3 11.1833 6.6293 12.5295 8.61869 12.5295H8.65569C9.67797 12.5295 10.5268 12.1995 11.1223 11.6438C11.7181 11.0879 12.0461 10.3188 12.0461 9.47149ZM20.0054 31.0065H20.2554V30.7565V21.6777C20.2554 21.1933 20.2941 20.7529 20.4204 20.4575L20.4215 20.4546C20.796 19.5469 21.6354 18.6337 23.0394 18.6337C23.9734 18.6337 24.595 18.9747 24.9942 19.5452C25.404 20.1309 25.6014 20.9904 25.6014 22.0602V30.7565V31.0065H25.8514H31.4038H31.6538V30.7565V21.4325C31.6538 18.8903 30.9564 16.9926 29.7595 15.729C28.5616 14.4642 26.8924 13.8655 25.012 13.8655C23.4908 13.8655 22.3753 14.2732 21.5418 14.8343C21.0008 15.1985 20.5844 15.6235 20.2554 16.0321V14.5002V14.2502H20.0054H14.4554H14.1938L14.2057 14.5116C14.24 15.2665 14.2401 19.3213 14.2315 23.1999C14.2271 25.1364 14.2206 27.0252 14.2152 28.43C14.2125 29.1324 14.21 29.7137 14.2083 30.1195L14.2062 30.5896L14.2056 30.713L14.2055 30.7446L14.2055 30.7526L14.2054 30.7546L14.2054 30.7551C14.2054 30.7553 14.2054 30.7553 14.4554 30.7565L14.2054 30.7553L14.2043 31.0065H14.4554H20.0054ZM0.25 3.1985C0.25 1.9245 1.34194 0.869995 2.71719 0.869995H34.2828C35.6581 0.869995 36.75 1.9245 36.75 3.1985V34.0415C36.75 35.3155 35.6581 36.37 34.2828 36.37H2.71719C1.34194 36.37 0.25 35.3155 0.25 34.0415V3.1985Z" stroke="white" stroke-width="0.5"/>
</svg>
