<svg width="170" height="22" viewBox="0 0 170 22" fill="none" xmlns="http://www.w3.org/2000/svg">
<path d="M15.232 1.456V4.62H10.024V21H6.104V4.62H0.896V1.456H15.232ZM26.8282 5.264C28.0042 5.264 29.0495 5.52533 29.9642 6.048C30.8788 6.552 31.5882 7.308 32.0922 8.316C32.6148 9.30533 32.8762 10.5 32.8762 11.9V21H28.9562V12.432C28.9562 11.2 28.6482 10.2573 28.0322 9.604C27.4162 8.932 26.5762 8.596 25.5122 8.596C24.4295 8.596 23.5708 8.932 22.9362 9.604C22.3202 10.2573 22.0122 11.2 22.0122 12.432V21H18.0922V0.28H22.0122V7.42C22.5162 6.748 23.1882 6.22533 24.0282 5.852C24.8682 5.46 25.8015 5.264 26.8282 5.264ZM35.5959 13.188C35.5959 11.62 35.9039 10.2293 36.5199 9.016C37.1545 7.80267 38.0039 6.86933 39.0679 6.216C40.1505 5.56267 41.3545 5.236 42.6799 5.236C43.8372 5.236 44.8452 5.46933 45.7039 5.936C46.5812 6.40267 47.2812 6.99067 47.8039 7.7V5.488H51.7519V21H47.8039V18.732C47.2999 19.46 46.5999 20.0667 45.7039 20.552C44.8265 21.0187 43.8092 21.252 42.6519 21.252C41.3452 21.252 40.1505 20.916 39.0679 20.244C38.0039 19.572 37.1545 18.6293 36.5199 17.416C35.9039 16.184 35.5959 14.7747 35.5959 13.188ZM47.8039 13.244C47.8039 12.292 47.6172 11.48 47.2439 10.808C46.8705 10.1173 46.3665 9.59467 45.7319 9.24C45.0972 8.86667 44.4159 8.68 43.6879 8.68C42.9599 8.68 42.2879 8.85733 41.6719 9.212C41.0559 9.56667 40.5519 10.0893 40.1599 10.78C39.7865 11.452 39.5999 12.2547 39.5999 13.188C39.5999 14.1213 39.7865 14.9427 40.1599 15.652C40.5519 16.3427 41.0559 16.8747 41.6719 17.248C42.3065 17.6213 42.9785 17.808 43.6879 17.808C44.4159 17.808 45.0972 17.6307 45.7319 17.276C46.3665 16.9027 46.8705 16.38 47.2439 15.708C47.6172 15.0173 47.8039 14.196 47.8039 13.244ZM59.5004 0.28V21H55.5804V0.28H59.5004ZM77.7934 12.908C77.7934 13.468 77.7561 13.972 77.6814 14.42H66.3414C66.4347 15.54 66.8267 16.4173 67.5174 17.052C68.2081 17.6867 69.0574 18.004 70.0654 18.004C71.5214 18.004 72.5574 17.3787 73.1734 16.128H77.4014C76.9534 17.6213 76.0947 18.8533 74.8254 19.824C73.5561 20.776 71.9974 21.252 70.1494 21.252C68.6561 21.252 67.3121 20.9253 66.1174 20.272C64.9414 19.6 64.0174 18.6573 63.3454 17.444C62.6921 16.2307 62.3654 14.8307 62.3654 13.244C62.3654 11.6387 62.6921 10.2293 63.3454 9.016C63.9987 7.80267 64.9134 6.86933 66.0894 6.216C67.2654 5.56267 68.6187 5.236 70.1494 5.236C71.6241 5.236 72.9401 5.55333 74.0974 6.188C75.2734 6.82267 76.1787 7.728 76.8134 8.904C77.4667 10.0613 77.7934 11.396 77.7934 12.908ZM73.7334 11.788C73.7147 10.78 73.3507 9.97733 72.6414 9.38C71.9321 8.764 71.0641 8.456 70.0374 8.456C69.0667 8.456 68.2454 8.75467 67.5734 9.352C66.9201 9.93067 66.5187 10.7427 66.3694 11.788H73.7334ZM86.5907 21.252C85.3213 21.252 84.1827 21.028 83.1747 20.58C82.1667 20.1133 81.364 19.488 80.7667 18.704C80.188 17.92 79.8707 17.052 79.8147 16.1H83.7627C83.8373 16.6973 84.1267 17.192 84.6307 17.584C85.1533 17.976 85.7973 18.172 86.5627 18.172C87.3093 18.172 87.888 18.0227 88.2987 17.724C88.728 17.4253 88.9427 17.0427 88.9427 16.576C88.9427 16.072 88.6813 15.6987 88.1587 15.456C87.6547 15.1947 86.8427 14.9147 85.7227 14.616C84.5653 14.336 83.6133 14.0467 82.8667 13.748C82.1387 13.4493 81.504 12.992 80.9627 12.376C80.44 11.76 80.1787 10.9293 80.1787 9.884C80.1787 9.02533 80.4213 8.24133 80.9067 7.532C81.4107 6.82267 82.12 6.26267 83.0347 5.852C83.968 5.44133 85.06 5.236 86.3107 5.236C88.1587 5.236 89.6333 5.70267 90.7347 6.636C91.836 7.55067 92.4427 8.792 92.5547 10.36H88.8027C88.7467 9.744 88.4853 9.25867 88.0187 8.904C87.5707 8.53067 86.964 8.344 86.1987 8.344C85.4893 8.344 84.9387 8.47467 84.5467 8.736C84.1733 8.99733 83.9867 9.36133 83.9867 9.828C83.9867 10.3507 84.248 10.752 84.7707 11.032C85.2933 11.2933 86.1053 11.564 87.2067 11.844C88.3267 12.124 89.2507 12.4133 89.9787 12.712C90.7067 13.0107 91.332 13.4773 91.8547 14.112C92.396 14.728 92.676 15.5493 92.6947 16.576C92.6947 17.472 92.4427 18.2747 91.9387 18.984C91.4533 19.6933 90.744 20.2533 89.8107 20.664C88.896 21.056 87.8227 21.252 86.5907 21.252ZM109.332 21.196C107.97 21.196 106.738 20.9627 105.636 20.496C104.554 20.0293 103.695 19.3573 103.06 18.48C102.426 17.6027 102.099 16.5667 102.08 15.372H106.28C106.336 16.1747 106.616 16.8093 107.12 17.276C107.643 17.7427 108.352 17.976 109.248 17.976C110.163 17.976 110.882 17.7613 111.404 17.332C111.927 16.884 112.188 16.3053 112.188 15.596C112.188 15.0173 112.011 14.5413 111.656 14.168C111.302 13.7947 110.854 13.5053 110.312 13.3C109.79 13.076 109.062 12.8333 108.128 12.572C106.859 12.1987 105.823 11.8347 105.02 11.48C104.236 11.1067 103.555 10.556 102.976 9.828C102.416 9.08133 102.136 8.092 102.136 6.86C102.136 5.70267 102.426 4.69467 103.004 3.836C103.583 2.97733 104.395 2.324 105.44 1.876C106.486 1.40933 107.68 1.176 109.024 1.176C111.04 1.176 112.674 1.67067 113.924 2.66C115.194 3.63067 115.894 4.99333 116.024 6.748H111.712C111.675 6.076 111.386 5.52533 110.844 5.096C110.322 4.648 109.622 4.424 108.744 4.424C107.979 4.424 107.363 4.62 106.896 5.012C106.448 5.404 106.224 5.97333 106.224 6.72C106.224 7.24267 106.392 7.68133 106.728 8.036C107.083 8.372 107.512 8.652 108.016 8.876C108.539 9.08133 109.267 9.324 110.2 9.604C111.47 9.97733 112.506 10.3507 113.308 10.724C114.111 11.0973 114.802 11.6573 115.38 12.404C115.959 13.1507 116.248 14.1307 116.248 15.344C116.248 16.3893 115.978 17.36 115.436 18.256C114.895 19.152 114.102 19.8707 113.056 20.412C112.011 20.9347 110.77 21.196 109.332 21.196ZM118.639 13.188C118.639 11.62 118.947 10.2293 119.563 9.016C120.198 7.80267 121.047 6.86933 122.111 6.216C123.194 5.56267 124.398 5.236 125.723 5.236C126.88 5.236 127.888 5.46933 128.747 5.936C129.624 6.40267 130.324 6.99067 130.847 7.7V5.488H134.795V21H130.847V18.732C130.343 19.46 129.643 20.0667 128.747 20.552C127.87 21.0187 126.852 21.252 125.695 21.252C124.388 21.252 123.194 20.916 122.111 20.244C121.047 19.572 120.198 18.6293 119.563 17.416C118.947 16.184 118.639 14.7747 118.639 13.188ZM130.847 13.244C130.847 12.292 130.66 11.48 130.287 10.808C129.914 10.1173 129.41 9.59467 128.775 9.24C128.14 8.86667 127.459 8.68 126.731 8.68C126.003 8.68 125.331 8.85733 124.715 9.212C124.099 9.56667 123.595 10.0893 123.203 10.78C122.83 11.452 122.643 12.2547 122.643 13.188C122.643 14.1213 122.83 14.9427 123.203 15.652C123.595 16.3427 124.099 16.8747 124.715 17.248C125.35 17.6213 126.022 17.808 126.731 17.808C127.459 17.808 128.14 17.6307 128.775 17.276C129.41 16.9027 129.914 16.38 130.287 15.708C130.66 15.0173 130.847 14.196 130.847 13.244ZM142.543 0.28V21H138.623V0.28H142.543ZM150.336 0.28V21H146.416V0.28H150.336ZM153.201 13.188C153.201 11.62 153.509 10.2293 154.125 9.016C154.76 7.80267 155.609 6.86933 156.673 6.216C157.756 5.56267 158.96 5.236 160.285 5.236C161.443 5.236 162.451 5.46933 163.309 5.936C164.187 6.40267 164.887 6.99067 165.409 7.7V5.488H169.357V21H165.409V18.732C164.905 19.46 164.205 20.0667 163.309 20.552C162.432 21.0187 161.415 21.252 160.257 21.252C158.951 21.252 157.756 20.916 156.673 20.244C155.609 19.572 154.76 18.6293 154.125 17.416C153.509 16.184 153.201 14.7747 153.201 13.188ZM165.409 13.244C165.409 12.292 165.223 11.48 164.849 10.808C164.476 10.1173 163.972 9.59467 163.337 9.24C162.703 8.86667 162.021 8.68 161.293 8.68C160.565 8.68 159.893 8.85733 159.277 9.212C158.661 9.56667 158.157 10.0893 157.765 10.78C157.392 11.452 157.205 12.2547 157.205 13.188C157.205 14.1213 157.392 14.9427 157.765 15.652C158.157 16.3427 158.661 16.8747 159.277 17.248C159.912 17.6213 160.584 17.808 161.293 17.808C162.021 17.808 162.703 17.6307 163.337 17.276C163.972 16.9027 164.476 16.38 164.849 15.708C165.223 15.0173 165.409 14.196 165.409 13.244Z" fill="white"/>
</svg>
